<?xml version="1.0" encoding="UTF-8"?>
<svg width="32px" height="32px" viewBox="0 0 32 32" version="1.1" xmlns="http://www.w3.org/2000/svg" xmlns:xlink="http://www.w3.org/1999/xlink">
    <!-- Generator: Sketch 49.2 (51160) - http://www.bohemiancoding.com/sketch -->
    <title>icon-habit</title>
    <desc>Created with Sketch.</desc>
    <defs></defs>
    <g id="Design" stroke="none" stroke-width="1" fill="none" fill-rule="evenodd">
        <g id="下载页" transform="translate(-836.000000, -1345.000000)" stroke="#54BC97" stroke-width="2">
            <g id="icon-habit" transform="translate(836.000000, 1345.000000)">
                <path d="M8.75810957,29.3747995 C10.9250605,31.5417505 14.4383822,31.5417505 16.6053332,29.3747995 L28.8754011,17.1047316 C29.8524699,16.1276629 30.4298313,14.8211935 30.4945287,13.440925 L30.998204,2.6954097 C31.0005723,2.64488472 31.0005723,2.59427652 30.998204,2.54375154 C30.9563248,1.65029077 30.1980819,0.959947553 29.3046211,1.0018268 L18.5591058,1.50550205 C17.1788373,1.57019947 15.8723679,2.1475609 14.8952992,3.12462969 L2.62523125,15.3946976 C0.45828028,17.5616486 0.45828028,21.0749702 2.62523125,23.2419212 L8.75810957,29.3747995 Z M21.1709,14.6404186 C18.9617617,14.6404186 17.1709,12.8495628 17.1709,10.6404285 C17.1709,8.43129431 18.9617617,6.64043851 21.1709,6.64043851 C23.3800382,6.64043851 25.1709,8.43129431 25.1709,10.6404285 C25.1709,12.8495628 23.3800382,14.6404186 21.1709,14.6404186 Z" id="Tag"></path>
            </g>
        </g>
    </g>
</svg>