<?xml version="1.0" encoding="UTF-8"?>
<svg width="40px" height="31px" viewBox="0 0 40 31" version="1.1" xmlns="http://www.w3.org/2000/svg" xmlns:xlink="http://www.w3.org/1999/xlink">
    <!-- Generator: Sketch 49.2 (51160) - http://www.bohemiancoding.com/sketch -->
    <title>icon-book</title>
    <desc>Created with Sketch.</desc>
    <defs></defs>
    <g id="Design" stroke="none" stroke-width="1" fill="none" fill-rule="evenodd">
        <g id="下载页" transform="translate(-212.000000, -979.000000)" stroke="#FFFFFF" stroke-width="2.25">
            <g id="Group-13" transform="translate(204.000000, 977.000000)">
                <g id="icon-book" transform="translate(8.000000, 2.000000)">
                    <path d="M37.0890084,2.74230628 C35.2041377,2.21500114 33.4267026,2 31.7825183,2 C24.6568338,2 20.0466724,6.02817926 20.0466724,6.02817926 L19.9989654,6.02619348 L19.952566,6.02817926 C19.952566,6.02817926 15.342742,2 8.21739492,2 C6.57443388,2 4.79691448,2.21500114 2.91098922,2.74230628 C2.37334655,2.89243889 2,3.38524125 2,3.95122756 L2,25.0206377 C2,25.7224425 2.5625296,26.274156 3.23262153,26.274156 C3.2915488,26.274156 3.35342873,26.2699777 3.4155196,26.2618691 C4.46925028,26.1036279 6.03991264,25.9292937 7.87943848,25.9292937 C11.2232755,25.9292937 15.4597107,26.4992515 19.1128209,28.7608386 C19.3712235,28.918873 19.6618947,29 19.952566,29 C19.9680465,29 19.9836957,28.9980142 19.9991341,28.9980142 C20.0156692,28.9980142 20.0310231,29 20.0466724,29 C20.3371327,29 20.6278039,28.918873 20.8852786,28.7608386 C24.5400338,26.4992101 28.7766378,25.9292937 32.119589,25.9292937 C33.9611395,25.9292937 35.5308739,26.1035865 36.5844359,26.2618691 C36.6465267,26.270019 36.7065507,26.274156 36.7675448,26.274156 C37.43654,26.274156 37.9999976,25.7224425 37.9999976,25.0206377 L37.9999976,3.95126891 C38.0010943,3.38524121 37.626651,2.89243889 37.0890084,2.74230628 Z" id="Path"></path>
                    <path d="M20,5.9375 L20,28.4656074" id="Line" stroke-linecap="square"></path>
                </g>
            </g>
        </g>
    </g>
</svg>